<?xml version="1.0" encoding="UTF-8"?>
<svg xmlns="http://www.w3.org/2000/svg" xmlns:xlink="http://www.w3.org/1999/xlink" width="200px" height="200px" viewBox="0 0 200 200" version="1.1">
<g id="surface1">
<path style=" stroke:none;fill-rule:nonzero;fill:rgb(0%,0%,0%);fill-opacity:1;" d="M 95.3125 0.09375 C 88.078125 0.578125 83.734375 1.15625 78.28125 2.359375 C 64.765625 5.34375 51.4375 11.453125 40.3125 19.765625 C 18.375 36.171875 4.109375 60.59375 0.796875 87.5 C 0.296875 91.5 0.15625 93.5 0.046875 97.890625 C -0.28125 112.0625 2.40625 126.0625 8 139.25 C 9.15625 141.984375 12.09375 147.8125 13.59375 150.390625 C 28.03125 175.046875 52.484375 192.515625 80.3125 198.046875 C 104.09375 202.78125 128.5625 198.828125 149.46875 186.890625 C 155.359375 183.53125 160.75 179.703125 165.859375 175.25 C 168.234375 173.1875 172.9375 168.46875 175.109375 166 C 193.609375 144.890625 202.34375 117.453125 199.453125 89.546875 C 198.40625 79.5625 195.9375 70.015625 191.953125 60.625 C 190.828125 58 187.875 52.125 186.40625 49.609375 C 171.53125 24.21875 146.171875 6.546875 117.34375 1.5 C 111.84375 0.53125 107.59375 0.15625 101.25 0.09375 C 98.453125 0.0625 95.78125 0.0625 95.3125 0.09375 Z M 104.296875 9.0625 C 124.6875 10.140625 142.875 17.28125 158.59375 30.375 C 161.25 32.59375 166.765625 38.03125 169.046875 40.703125 C 179.84375 53.328125 187.03125 68.625 189.765625 84.8125 C 192.953125 103.625 190.125 123.046875 181.71875 140.078125 C 177.1875 149.265625 171.734375 156.84375 164.375 164.234375 C 159.046875 169.578125 154.234375 173.421875 148.0625 177.265625 C 135.84375 184.90625 122.5 189.34375 107.65625 190.71875 C 103.71875 191.09375 96.28125 191.09375 92.34375 190.71875 C 76.828125 189.296875 63.03125 184.546875 50.390625 176.28125 C 33.15625 165.015625 20.21875 148.359375 13.734375 129.0625 C 7.265625 109.78125 7.359375 89.453125 13.984375 70.203125 C 17.53125 59.890625 23 50.265625 30.375 41.40625 C 32.8125 38.453125 38.515625 32.765625 41.484375 30.296875 C 50.828125 22.53125 60.65625 17.078125 72.015625 13.359375 C 82.203125 10.03125 93.65625 8.5 104.296875 9.0625 Z M 104.296875 9.0625 "/>
<path style=" stroke:none;fill-rule:nonzero;fill:rgb(0%,0%,0%);fill-opacity:1;" d="M 61.09375 49.015625 C 54.4375 49.71875 48.140625 52.53125 43.390625 56.890625 L 42.3125 57.859375 L 48.65625 64.203125 L 49.515625 63.453125 C 52.921875 60.53125 56.609375 58.796875 60.859375 58.125 C 62.5 57.859375 65.953125 57.90625 67.734375 58.203125 C 71.71875 58.859375 75.890625 60.90625 78.859375 63.625 L 79.546875 64.28125 L 82.671875 61.15625 C 84.390625 59.453125 85.765625 57.96875 85.75 57.875 C 85.65625 57.515625 83.109375 55.390625 81.328125 54.1875 C 77.21875 51.40625 72.328125 49.609375 67.46875 49.078125 C 66.046875 48.921875 62.328125 48.890625 61.09375 49.015625 Z M 61.09375 49.015625 "/>
<path style=" stroke:none;fill-rule:nonzero;fill:rgb(0%,0%,0%);fill-opacity:1;" d="M 130.78125 49.15625 C 126.375 49.71875 121.71875 51.453125 117.984375 53.90625 C 116.4375 54.921875 114.5625 56.40625 113.671875 57.328125 L 113.0625 57.96875 L 116.203125 61.125 L 119.34375 64.265625 L 120.4375 63.3125 C 125.03125 59.359375 130.53125 57.546875 136.578125 57.984375 C 141.203125 58.328125 145.578125 60.15625 149.203125 63.28125 L 150.34375 64.265625 L 153.484375 61.125 L 156.625 57.96875 L 156.015625 57.328125 C 154.421875 55.703125 151.40625 53.5625 148.75 52.203125 C 143.4375 49.484375 136.875 48.375 130.78125 49.15625 Z M 130.78125 49.15625 "/>
<path style=" stroke:none;fill-rule:nonzero;fill:rgb(0%,0%,0%);fill-opacity:1;" d="M 62.109375 71.9375 C 59.140625 72.671875 56.8125 74.984375 56.015625 77.984375 C 55.71875 79.0625 55.71875 81.09375 56.015625 82.171875 C 56.71875 84.8125 58.890625 87.125 61.5 87.984375 C 66.78125 89.734375 72.359375 85.71875 72.390625 80.15625 C 72.40625 78.640625 72.125 77.53125 71.421875 76.171875 C 70.328125 74.046875 68.125 72.375 65.8125 71.890625 C 64.75 71.671875 63.109375 71.6875 62.109375 71.9375 Z M 62.109375 71.9375 "/>
<path style=" stroke:none;fill-rule:nonzero;fill:rgb(0%,0%,0%);fill-opacity:1;" d="M 132.859375 71.9375 C 129.96875 72.671875 127.671875 74.90625 126.8125 77.8125 C 126.65625 78.328125 126.546875 79.234375 126.546875 80.078125 C 126.546875 82.4375 127.1875 84.015625 128.859375 85.78125 C 131.359375 88.4375 135.109375 89.140625 138.421875 87.578125 C 140.546875 86.5625 142.4375 84.25 142.953125 82.03125 C 143.1875 81 143.15625 78.953125 142.890625 77.921875 C 142.21875 75.3125 140.15625 73.078125 137.578125 72.171875 C 136.40625 71.75 134.03125 71.640625 132.859375 71.9375 Z M 132.859375 71.9375 "/>
<path style=" stroke:none;fill-rule:nonzero;fill:rgb(0%,0%,0%);fill-opacity:1;" d="M 55.625 130.09375 L 51.796875 133.921875 L 52.96875 135.03125 C 70.84375 151.96875 95.890625 157.96875 119.53125 151 C 127.09375 148.765625 134.328125 145.125 140.734375 140.328125 C 143.953125 137.921875 148.125 134.265625 148.125 133.859375 C 148.125 133.6875 140.75 126.25 140.578125 126.25 C 140.5 126.25 139.78125 126.875 138.984375 127.625 C 135.203125 131.25 129.4375 135.1875 124.59375 137.4375 C 108.859375 144.796875 91.21875 144.796875 75.4375 137.453125 C 70.609375 135.203125 64.96875 131.359375 61.078125 127.671875 C 60.234375 126.890625 59.53125 126.25 59.5 126.25 C 59.46875 126.25 57.734375 127.984375 55.625 130.09375 Z M 55.625 130.09375 "/>
</g>
</svg>
